<svg xmlns="http://www.w3.org/2000/svg" width="84.001" height="84.003" viewBox="0 0 84.001 84.003"><defs><style>.a{fill:#fff;}</style></defs><path class="a" d="M777-12172H745.5a10.513,10.513,0,0,1-10.5-10.5v-63a10.513,10.513,0,0,1,10.5-10.5h63a10.513,10.513,0,0,1,10.5,10.5v63a10.513,10.513,0,0,1-10.5,10.5H792.751v-28.876h7.874l5.25-13.125H792.751v-10.5a2.211,2.211,0,0,1,1.113-2.229,6.428,6.428,0,0,1,2.8-.4l.416,0h.224c.226,0,.457,0,.692,0h5.25v-13.124h-10.5A15.767,15.767,0,0,0,777-12224.5v10.5H766.5v13.125H777V-12172Z" transform="translate(-734.999 12256.001)"/></svg>