<svg xmlns="http://www.w3.org/2000/svg" width="84" height="84.023" viewBox="0 0 84 84.023"><defs><style>.a{fill:#fff;}</style></defs><path class="a" d="M777.083-12171.976c-12.142,0-25.6-.311-28.3-1.006a16.786,16.786,0,0,1-8.257-4.595,17.717,17.717,0,0,1-4.11-7.647c-1.664-5.93-1.484-13.3-1.293-21.1.061-2.51.125-5.1.125-7.68,0-3.54-.035-6.716-.066-9.518-.081-7.349-.139-12.657.515-16.743a19.278,19.278,0,0,1,1.6-5.407,17.059,17.059,0,0,1,3.183-4.5,15.887,15.887,0,0,1,8.788-4.823c3.88-.841,9.1-1.011,16.278-1.011,2.627,0,5.5.023,8.822.052l.4,0,1.535.013c4.315.035,9.054.067,14.468.067,9.835.019,10.394.1,12.247.37l.1.015a18.011,18.011,0,0,1,10.782,5.407,17.655,17.655,0,0,1,3.4,5.329,23.063,23.063,0,0,1,1.619,7.032c.1,1.323.108,46.086,0,47.421a20.328,20.328,0,0,1-4.382,11.67,17.212,17.212,0,0,1-9.026,5.63C802.809-12172.289,789.286-12171.976,777.083-12171.976Zm.029-11.073c.992,0,2,.009,2.982.017l.207,0,.207,0c.97.008,1.973.017,2.95.017,9.9,0,19.1-.818,22.953-10.711,1.678-4.341,1.658-9.716,1.63-17.155v-.044c0-.983-.007-2-.007-3.057,0-1.151.006-2.265.012-3.342v-.021c.057-10.287.094-17.083-5.2-22.378-4.836-4.836-11.237-5.221-19.1-5.221-.947,0-1.909.006-2.927.013h-.173c-1.013.007-2.274.016-3.531.016-.933,0-1.877-.007-2.789-.013l-.259,0c-.868-.006-1.948-.014-2.957-.014-10.46,0-19.432.806-23.288,10.7-1.678,4.3-1.658,9.712-1.63,17.2q.005,1.481.007,3.066c0,.833,0,1.671-.006,2.482v.073c-.024,6.885-.047,13.388,1.628,17.7,3.844,9.9,12.825,10.7,23.3,10.7.892,0,1.813-.007,2.7-.013l.257,0,.262,0C775.244-12183.042,776.183-12183.049,777.112-12183.049Zm7.02-5.537c-1.111,0-2.248-.013-3.348-.024h-.135c-1.146-.013-2.33-.025-3.527-.025-24.638,0-25.348-.71-25.348-25.357,0-12.646.513-18.825,3.555-22.018,1.461-1.532,3.556-2.417,6.793-2.867a96.4,96.4,0,0,1,12.226-.464h0v.006c1.82,0,3.57-.02,4.975-.032,1.43-.014,2.909-.028,4.257-.028a52.112,52.112,0,0,1,9.3.591,10.456,10.456,0,0,1,5.868,2.871c2.032,2.128,3.16,5.536,3.656,11.053.448,4.988.416,11.766-.113,23.392-.254,5.531-2,8.993-5.485,10.894C793.74-12188.928,789.522-12188.586,784.131-12188.586Zm-7.014-41.276a15.9,15.9,0,0,0-15.878,15.884,15.9,15.9,0,0,0,15.878,15.88,15.9,15.9,0,0,0,15.878-15.88A15.9,15.9,0,0,0,777.118-12229.862Zm16.509-4.339a3.714,3.714,0,0,0-3.71,3.71,3.714,3.714,0,0,0,3.71,3.71,3.714,3.714,0,0,0,3.71-3.71A3.714,3.714,0,0,0,793.627-12234.2Zm-16.509,30.533a9.873,9.873,0,0,1-7.669-3.225,10.681,10.681,0,0,1-2.557-7.093,10.658,10.658,0,0,1,2.555-7.085,9.878,9.878,0,0,1,7.671-3.22,9.881,9.881,0,0,1,7.671,3.224,10.675,10.675,0,0,1,2.558,7.093,10.661,10.661,0,0,1-2.557,7.086A9.883,9.883,0,0,1,777.118-12203.668Z" transform="translate(-735 12255.999)"/></svg>