<svg xmlns="http://www.w3.org/2000/svg" width="84" height="84" viewBox="0 0 84 84"><defs><style>.a{fill:#fff;}</style></defs><path class="a" d="M76.4,0H7.6A7.6,7.6,0,0,0,0,7.6V76.4A7.6,7.6,0,0,0,7.6,84H76.4A7.6,7.6,0,0,0,84,76.4V7.6A7.6,7.6,0,0,0,76.4,0ZM25.993,72.531a2.211,2.211,0,0,1-2.211,2.211H14.369a2.211,2.211,0,0,1-2.211-2.211V33.073a2.211,2.211,0,0,1,2.211-2.211h9.413a2.211,2.211,0,0,1,2.211,2.211ZM19.075,27.142A8.942,8.942,0,1,1,28.018,18.2,8.942,8.942,0,0,1,19.075,27.142ZM75.184,72.709a2.033,2.033,0,0,1-2.033,2.033h-10.1a2.033,2.033,0,0,1-2.033-2.033V54.2c0-2.761.81-12.1-7.215-12.1-6.225,0-7.488,6.391-7.741,9.26V72.709a2.033,2.033,0,0,1-2.033,2.033H34.259a2.033,2.033,0,0,1-2.033-2.033V32.895a2.033,2.033,0,0,1,2.033-2.033h9.769a2.033,2.033,0,0,1,2.033,2.033v3.442C48.369,32.873,51.8,30.2,59.1,30.2c16.174,0,16.081,15.11,16.081,23.413v19.1Z"/></svg>