<svg xmlns="http://www.w3.org/2000/svg" width="109.146" height="95.917" viewBox="0 0 109.146 95.917"><defs><style>.a{fill:rgba(255,36,36,0.3);}</style></defs><path class="a" d="M10.232,50.208H27.287v-13.7A13.686,13.686,0,0,0,13.643,22.8H11.938a5.115,5.115,0,0,1-5.116-5.138V7.388A5.115,5.115,0,0,1,11.938,2.25h1.705A34.173,34.173,0,0,1,47.752,36.506V87.89A10.257,10.257,0,0,1,37.519,98.167H10.232A10.257,10.257,0,0,1,0,87.89v-27.4A10.257,10.257,0,0,1,10.232,50.208Zm61.395,0H88.682v-13.7A13.686,13.686,0,0,0,75.038,22.8H73.333a5.115,5.115,0,0,1-5.116-5.138V7.388A5.115,5.115,0,0,1,73.333,2.25h1.705a34.173,34.173,0,0,1,34.108,34.256V87.89A10.257,10.257,0,0,1,98.914,98.167H71.627A10.257,10.257,0,0,1,61.395,87.89v-27.4A10.257,10.257,0,0,1,71.627,50.208Z" transform="translate(0 -2.25)"/></svg>