<svg xmlns="http://www.w3.org/2000/svg" width="316.573" height="80" viewBox="0 0 316.573 80"><defs><style>.a{fill:#062441;}.b{fill:#e80000;}.c{fill:#fb7900;}</style></defs><g transform="translate(-363 -546)"><path class="a" d="M562.625,187.241h-69.7L480.341,132.11l.171-.113L562.688,187.1Z" transform="translate(-117.341 421.061)"/><path class="b" d="M762.52,131.689c-.246,1.175-.442,2.182-.67,3.182q-4.2,18.374-8.4,36.746-1.656,7.251-3.287,14.507c-.206.906-.326.97-1.264.969q-9.6-.013-19.2,0a3.034,3.034,0,0,1-1.785-.54q-11.369-7.637-22.753-15.253c-.246-.165-.481-.345-.822-.591Z" transform="translate(-269.52 421.268)"/><path class="c" d="M648.589,130.761c-1.916,1.287-3.733,2.511-5.554,3.731q-12.271,8.23-24.535,16.47a.867.867,0,0,1-1.15-.006q-14.46-9.69-28.938-19.351c-.393-.263-.8-.512-1.264-.813.841-.587,1.613-1.144,2.4-1.674q13.733-9.218,27.471-18.429a1.248,1.248,0,0,1,1.791-.008q14.617,9.832,29.232,19.669C648.2,130.459,648.354,130.583,648.589,130.761Z" transform="translate(-189.928 435.693)"/><path class="c" d="M623.13,328.763c.9,0,.9,0,.9.911,0,2.114-.012,4.229.009,6.343,0,.49-.144.711-.639.652a3.517,3.517,0,0,0-.415,0H520.437c-1.249,0-1.062.081-1.068-1.1-.009-1.995,0-3.989,0-5.984,0-.821,0-.823.8-.823Z" transform="translate(-143.666 289.322)"/><path class="b" d="M379.442,415.2c4,.048,8.007.153,12.006.118a33.8,33.8,0,0,0,5.252-.5,12.75,12.75,0,0,0,6.134-2.564,5.929,5.929,0,0,0,2.363-4.929c-.038-1.943-.019-3.889-.005-5.832a5.642,5.642,0,0,0-1.489-3.922,10.117,10.117,0,0,0-4.451-2.742,23.379,23.379,0,0,0-7.631-1.183c-9.195-.024-18.387-.011-27.582-.011-.132,0-.263,0-.4,0a1.925,1.925,0,0,0-2.035,2.113V426.44c0,.113,0,.228,0,.344.048,1.086.438,1.68,1.5,1.83a12.894,12.894,0,0,0,3.137.059c1.309-.14,1.747-.753,1.747-2.064q0-4.991,0-9.982v-.672c.223.078.363.118.495.175q13.788,5.963,27.569,11.942a6.867,6.867,0,0,0,2.61.669,22.74,22.74,0,0,0,3.284-.177,1.553,1.553,0,0,0,1.344-1.339,2.261,2.261,0,0,0-1.567-2.852q-11.333-4.467-22.674-8.913c-.151-.059-.293-.137-.438-.207A2.757,2.757,0,0,1,379.442,415.2Zm-10.754-4.951h-.667c-.011-.218-.024-.379-.024-.538,0-3.443.005-6.886-.011-10.329,0-.425.1-.562.543-.559,7.612.013,15.224,0,22.833.016a17.02,17.02,0,0,1,5.032.642,6.573,6.573,0,0,1,1.39.621,2.139,2.139,0,0,1,1.064,1.943c0,1.645-.008,3.293,0,4.94a2.245,2.245,0,0,1-1.261,2.129,8.423,8.423,0,0,1-3.212.908,34.636,34.636,0,0,1-3.5.215C383.481,410.257,376.085,410.246,368.688,410.246Z" transform="translate(145.393 167.374)"/><path class="b" d="M574.175,430.718a6.987,6.987,0,0,0-4.188-6.671,15.156,15.156,0,0,0-5.905-1.486c-2.728-.148-5.464-.145-8.2-.2a4,4,0,0,0-.688.073,1.076,1.076,0,0,0-1,.89,8.527,8.527,0,0,0-.156,2c.124,1.623.481,1.895,2.1,1.914,2.371.027,4.744.032,7.112.134a7.015,7.015,0,0,1,3.752,1.089,2.1,2.1,0,0,1,1.029,1.844h-.734q-9.712,0-19.425.008c-1.317,0-2.637.043-3.948.148a16.821,16.821,0,0,0-5.784,1.387,6.764,6.764,0,0,0-4.29,5.338,29.308,29.308,0,0,0-.137,4.239,7.016,7.016,0,0,0,4.693,6.781,17.67,17.67,0,0,0,6.795,1.357q8.6.1,17.2.016a17.8,17.8,0,0,0,7.4-1.529,6.976,6.976,0,0,0,4.36-6.706C574.2,437.8,574.191,434.26,574.175,430.718ZM566.7,443.442a7.967,7.967,0,0,1-3.868,1.22,22.263,22.263,0,0,1-2.32.121c-4.7.005-9.391.024-14.084-.035a19.008,19.008,0,0,1-3.465-.489,4.7,4.7,0,0,1-2.387-1.331,2.416,2.416,0,0,1-.747-1.817c.008-.793.021-1.583,0-2.373a2.642,2.642,0,0,1,1.091-2.263,7.154,7.154,0,0,1,4.2-1.392c1.954-.11,3.916-.113,5.876-.132,1.927-.019,3.854-.005,5.781-.005h10.579c.71,0,.712,0,.712.734,0,1.715-.032,3.427.008,5.139A2.918,2.918,0,0,1,566.7,443.442Z" transform="translate(19.548 146.364)"/><path class="b" d="M893.723,430.669a6.91,6.91,0,0,0-4.037-6.558,15.038,15.038,0,0,0-6.082-1.562c-2.6-.148-5.2-.145-7.8-.2a6.242,6.242,0,0,0-.839.043,1.222,1.222,0,0,0-1.271,1.2,9.027,9.027,0,0,0-.091,1.865c.081,1.357.546,1.763,1.911,1.766,1.613.005,3.228-.038,4.841.013,1.282.043,2.561.161,3.835.317a5.139,5.139,0,0,1,2.5.981,2.065,2.065,0,0,1,.917,1.761h-.728q-9.809,0-19.621.008c-1.25,0-2.5.043-3.749.145a16.829,16.829,0,0,0-5.873,1.427,6.721,6.721,0,0,0-4.15,5,22.165,22.165,0,0,0-.172,3.639,13,13,0,0,0,.156,2.508,6.938,6.938,0,0,0,4.5,5.171,18.18,18.18,0,0,0,6.795,1.363c3.11.081,6.225.051,9.337.051,2.717,0,5.437.035,8.155-.051a17.8,17.8,0,0,0,7.15-1.535,6.975,6.975,0,0,0,4.317-6.779C893.72,437.719,893.731,434.192,893.723,430.669Zm-7.072,12.458a6.539,6.539,0,0,1-3.572,1.435,26.251,26.251,0,0,1-2.906.21c-2.223.03-4.448.008-6.671.008v-.019c-2.505,0-5.01.046-7.512-.022a16.78,16.78,0,0,1-3.365-.473,6.649,6.649,0,0,1-1.951-.909A2.554,2.554,0,0,1,859.4,440.9c.046-.755.03-1.516,0-2.274a2.5,2.5,0,0,1,.965-2.07,6.338,6.338,0,0,1,3.486-1.387,28.191,28.191,0,0,1,3.3-.226c6.607-.019,13.213-.011,19.82-.011.651,0,.651,0,.651.637,0,1.812-.016,3.626.008,5.437A2.619,2.619,0,0,1,886.651,443.127Z" transform="translate(-214.153 146.373)"/><path class="b" d="M736.671,439.044q0,4.275,0,8.55c0,1.413-.431,2-1.823,2.155a11.527,11.527,0,0,1-2.748-.045c-1.014-.129-1.4-.637-1.513-1.658a6.025,6.025,0,0,1-.018-.642c0-5.453-.009-10.906.008-16.359a2.742,2.742,0,0,0-1.132-2.293,7.387,7.387,0,0,0-3.918-1.35,23.5,23.5,0,0,0-2.514-.129c-3.9-.006-7.81-.03-11.713.04a16.462,16.462,0,0,0-3.4.528,5.592,5.592,0,0,0-1.674.815,2.763,2.763,0,0,0-1.291,2.51c.019,5.469.009,10.939.008,16.408,0,1.451-.418,2.03-1.847,2.176a13.783,13.783,0,0,1-2.939-.1,1.4,1.4,0,0,1-1.248-1.339,6.176,6.176,0,0,1-.069-.785q-.006-8.377,0-16.754a6.962,6.962,0,0,1,4.123-6.658,14.623,14.623,0,0,1,6-1.516c3.685-.146,7.375-.195,11.063-.19,2.467,0,4.939.1,7.4.285a13.543,13.543,0,0,1,5.248,1.476,6.9,6.9,0,0,1,4.008,6.525C736.678,433.476,736.671,436.26,736.671,439.044Z" transform="translate(-101.19 146.33)"/><path class="a" d="M757.929,575.1v-.583h-1.758v1.8c-.137-.153-.207-.218-.261-.293a4.587,4.587,0,0,0-5.835-1.347,5.625,5.625,0,0,0-3.059,4.612,5.289,5.289,0,0,0,7.034,5.7,5.525,5.525,0,0,0,2.137-1.451c0,.8.013,1.594,0,2.392a2.619,2.619,0,0,1-1.812,2.61,4.511,4.511,0,0,1-3.051.118,2.567,2.567,0,0,1-2.029-2.118.439.439,0,0,0-.3-.287c-.554-.027-1.113-.013-1.7-.013a3.958,3.958,0,0,0,1.889,3.387,6.415,6.415,0,0,0,7.265-.519,3.969,3.969,0,0,0,1.489-3.19C757.905,582.315,757.929,578.708,757.929,575.1Zm-1.742,4.859a3.586,3.586,0,0,1-5.155,3.473,3.927,3.927,0,0,1-1.943-4.607,3.717,3.717,0,0,1,1.809-2.492,3.524,3.524,0,0,1,4.679,1.271A4.078,4.078,0,0,1,756.188,579.961Z" transform="translate(-136.391 35.361)"/><path class="a" d="M845.378,566.324h-1.857v-.609c0-1.861.026-3.722-.016-5.582a4.382,4.382,0,0,0-.355-1.568c-.768-1.811-2.554-1.628-3.666-.831a2.787,2.787,0,0,0-1.169,2.344c-.013,1.893,0,3.787,0,5.681v.565h-1.83v-17.75H838.3v8.6l.166.119a1.488,1.488,0,0,1,.176-.339,4.048,4.048,0,0,1,5.8-.242,3.488,3.488,0,0,1,.968,2.573c.034,2.288.011,4.577.009,6.866A.8.8,0,0,1,845.378,566.324Z" transform="translate(-201.846 54.073)"/><path class="a" d="M505.457,585.146H503.5v-.566q0-3.162,0-6.323a2.388,2.388,0,0,0-3.5-2.026,2.913,2.913,0,0,0-1.686,2.782c.071,2.022.018,4.048.018,6.121h-1.753V574.616h1.727v1.512l.112.054c.106-.126.214-.25.318-.378a3.728,3.728,0,0,1,6.712,2.364c.005,2.157,0,4.314,0,6.471Z" transform="translate(46.693 35.249)"/><path class="a" d="M583.479,583.328l1.466-.978a12.153,12.153,0,0,0,1.412,1.224,2.515,2.515,0,0,0,2.875-.127,1.3,1.3,0,0,0,.057-2.086,2.854,2.854,0,0,0-.9-.482c-.792-.278-1.612-.48-2.4-.776a3.02,3.02,0,0,1-1.966-3.716,2.943,2.943,0,0,1,2.38-1.992,6.849,6.849,0,0,1,2.2-.168,3.8,3.8,0,0,1,2.978,2l-1.487.861a2.765,2.765,0,0,0-2.428-1.451,1.666,1.666,0,0,0-1.811.989,1.356,1.356,0,0,0,.828,1.8c.944.344,1.893.672,2.841,1.007A2.655,2.655,0,0,1,591.6,582a3.244,3.244,0,0,1-1.995,3.087,5.433,5.433,0,0,1-5.916-1.467C583.627,583.548,583.576,583.465,583.479,583.328Z" transform="translate(-16.845 35.33)"/><path class="a" d="M424.97,568.895h-1.9V552.087h1.9Z" transform="translate(100.448 51.504)"/><path class="a" d="M931.958,564.147h1.869V565.6h-1.165c-.7,0-.7,0-.7.681,0,2.586-.013,5.172.011,7.758,0,.489-.145.639-.614.595-.389-.037-.784-.008-1.247-.008V574c0-2.619-.01-5.238.01-7.856,0-.439-.121-.593-.557-.551-.342.033-.689.007-1.076.007v-1.451c.36,0,.718-.025,1.071.006.423.038.577-.091.562-.543-.035-1.037-.011-2.075-.011-3.113v-.617c.572,0,1.108-.018,1.641.019.079.005.2.267.2.412.017,1.07.009,2.141.009,3.212Z" transform="translate(-269.121 45.81)"/><path class="a" d="M680.643,575.47v10.539c-.562,0-1.117.017-1.668-.019-.082-.005-.208-.26-.21-.4-.018-1-.01-2.01-.01-3.015,0-2.192.009-4.383-.008-6.574,0-.4.1-.569.523-.537C679.71,575.5,680.152,575.47,680.643,575.47Z" transform="translate(-86.507 34.414)"/><path class="a" d="M680.112,553.378a1.233,1.233,0,0,1-1.34,1.261,1.284,1.284,0,0,1-1.223-1.344,1.2,1.2,0,0,1,1.29-1.2A1.253,1.253,0,0,1,680.112,553.378Z" transform="translate(-85.631 51.502)"/></g></svg>