<svg xmlns="http://www.w3.org/2000/svg" width="84" height="84.002" viewBox="0 0 84 84.002"><defs><style>.a{fill:#fff;}</style></defs><path class="a" d="M777-12172a254.932,254.932,0,0,1-26.976-1.439,15.351,15.351,0,0,1-9.193-4.394,15.351,15.351,0,0,1-4.394-9.193A255.355,255.355,0,0,1,735-12214a255.318,255.318,0,0,1,1.437-26.974,15.357,15.357,0,0,1,4.394-9.194,15.342,15.342,0,0,1,9.193-4.393A255.019,255.019,0,0,1,777-12256a255.019,255.019,0,0,1,26.976,1.439,15.341,15.341,0,0,1,9.193,4.393,15.357,15.357,0,0,1,4.394,9.194A255.318,255.318,0,0,1,819-12214a255.355,255.355,0,0,1-1.437,26.976,15.352,15.352,0,0,1-4.394,9.193,15.35,15.35,0,0,1-9.193,4.394A254.93,254.93,0,0,1,777-12172Zm-26.034-25.512h0a30.515,30.515,0,0,0,16.342,4.724,30.625,30.625,0,0,0,30.591-30.591c0-.217,0-.421-.006-.634.006-.126.006-.247.006-.375,0-.091,0-.176,0-.265a19.121,19.121,0,0,0,5.14-5.53,19.383,19.383,0,0,1-5.586,1.55c0-.016-.006-.029-.008-.043l0-.019v-.008c0-.021-.007-.041-.012-.062a10.418,10.418,0,0,0,4.122-5.626,20.824,20.824,0,0,1-4.974,2.082,14.372,14.372,0,0,1-1.753.36,10.728,10.728,0,0,0-7.748-3.267,10.84,10.84,0,0,0-10.827,10.827c0,.217.006.428.018.643a10.818,10.818,0,0,0,.2,1.522c-2.981-.044-13.373-.969-22-10.987a12.824,12.824,0,0,0-1.4,4.923c-.176,2.574.494,6.265,4.681,9.233l-.007,0h-.008c-.559-.026-3.426-.214-5.011-1.333a10.486,10.486,0,0,0,.91,4.373c.948,2.141,3.089,4.97,7.912,6.294,0,0-.009,0-.023.007a15.009,15.009,0,0,1-3.083.391,4.631,4.631,0,0,1-1.819-.3,10.082,10.082,0,0,0,1.847,3.552,10.657,10.657,0,0,0,8,3.938s0,0-.009.01a17.854,17.854,0,0,1-3.615,2.335,22.415,22.415,0,0,1-9.993,2.346C752.222-12197.435,751.589-12197.46,750.965-12197.511Z" transform="translate(-735 12256.001)"/></svg>