<svg xmlns="http://www.w3.org/2000/svg" width="84" height="84" viewBox="0 0 84 84"><defs><style>.a{fill:#fff;}</style></defs><path class="a" d="M36.769,49.869,50.431,42,36.769,34.131Zm0,0"/><path class="a" d="M77.942,0H6.058A6.058,6.058,0,0,0,0,6.058V77.942A6.058,6.058,0,0,0,6.058,84H77.942A6.058,6.058,0,0,0,84,77.942V6.058A6.058,6.058,0,0,0,77.942,0Zm-9.7,42.043s0,8.518-1.081,12.625a6.576,6.576,0,0,1-4.626,4.626C58.429,60.375,42,60.375,42,60.375s-16.386,0-20.537-1.124a6.577,6.577,0,0,1-4.626-4.626C15.756,50.561,15.756,42,15.756,42s0-8.517,1.081-12.624a6.71,6.71,0,0,1,4.626-4.669C25.571,23.625,42,23.625,42,23.625s16.429,0,20.537,1.124a6.577,6.577,0,0,1,4.626,4.626c1.124,4.107,1.081,12.667,1.081,12.667Zm0,0"/></svg>